<mxfile host="app.diagrams.net" modified="2024-01-21T21:36:49.429Z" agent="Mozilla/5.0 (Windows NT 10.0; Win64; x64) AppleWebKit/537.36 (KHTML, like Gecko) Chrome/120.0.0.0 Safari/537.36" etag="W7qDhlMcuzQT3pewghE7" version="22.1.18" type="device">
  <diagram id="dWmEx_8C3ra9uAuUZR-o" name="Seite-2">
    <mxGraphModel dx="2049" dy="1066" grid="1" gridSize="10" guides="1" tooltips="1" connect="1" arrows="1" fold="1" page="1" pageScale="1" pageWidth="827" pageHeight="1169" math="0" shadow="0">
      <root>
        <mxCell id="0" />
        <mxCell id="1" parent="0" />
        <mxCell id="v2-bN_Bwf2UKAEft6Nu9-12" style="edgeStyle=orthogonalEdgeStyle;rounded=0;orthogonalLoop=1;jettySize=auto;html=1;" edge="1" parent="1" source="v2-bN_Bwf2UKAEft6Nu9-1">
          <mxGeometry relative="1" as="geometry">
            <mxPoint x="85" y="1140" as="targetPoint" />
          </mxGeometry>
        </mxCell>
        <mxCell id="v2-bN_Bwf2UKAEft6Nu9-1" value="Actor" style="shape=umlActor;verticalLabelPosition=bottom;verticalAlign=top;html=1;outlineConnect=0;" vertex="1" parent="1">
          <mxGeometry x="70" y="20" width="30" height="60" as="geometry" />
        </mxCell>
        <mxCell id="v2-bN_Bwf2UKAEft6Nu9-6" style="edgeStyle=orthogonalEdgeStyle;rounded=0;orthogonalLoop=1;jettySize=auto;html=1;" edge="1" parent="1" source="v2-bN_Bwf2UKAEft6Nu9-2">
          <mxGeometry relative="1" as="geometry">
            <mxPoint x="300" y="1140" as="targetPoint" />
          </mxGeometry>
        </mxCell>
        <mxCell id="v2-bN_Bwf2UKAEft6Nu9-2" value="ControllerLogin" style="rounded=0;whiteSpace=wrap;html=1;" vertex="1" parent="1">
          <mxGeometry x="240" y="20" width="120" height="60" as="geometry" />
        </mxCell>
        <mxCell id="v2-bN_Bwf2UKAEft6Nu9-13" style="edgeStyle=orthogonalEdgeStyle;rounded=0;orthogonalLoop=1;jettySize=auto;html=1;" edge="1" parent="1" source="v2-bN_Bwf2UKAEft6Nu9-3">
          <mxGeometry relative="1" as="geometry">
            <mxPoint x="520" y="1150" as="targetPoint" />
          </mxGeometry>
        </mxCell>
        <mxCell id="v2-bN_Bwf2UKAEft6Nu9-3" value="LogicLogin" style="rounded=0;whiteSpace=wrap;html=1;" vertex="1" parent="1">
          <mxGeometry x="460" y="20" width="120" height="60" as="geometry" />
        </mxCell>
        <mxCell id="v2-bN_Bwf2UKAEft6Nu9-8" style="edgeStyle=orthogonalEdgeStyle;rounded=0;orthogonalLoop=1;jettySize=auto;html=1;" edge="1" parent="1" source="v2-bN_Bwf2UKAEft6Nu9-4">
          <mxGeometry relative="1" as="geometry">
            <mxPoint x="710" y="1130" as="targetPoint" />
          </mxGeometry>
        </mxCell>
        <mxCell id="v2-bN_Bwf2UKAEft6Nu9-4" value="ControllerOverview" style="rounded=0;whiteSpace=wrap;html=1;" vertex="1" parent="1">
          <mxGeometry x="650" y="20" width="120" height="60" as="geometry" />
        </mxCell>
        <mxCell id="v2-bN_Bwf2UKAEft6Nu9-14" value="" style="endArrow=classic;html=1;rounded=0;" edge="1" parent="1">
          <mxGeometry relative="1" as="geometry">
            <mxPoint x="90" y="185" as="sourcePoint" />
            <mxPoint x="300" y="185" as="targetPoint" />
            <Array as="points">
              <mxPoint x="120" y="184.5" />
            </Array>
          </mxGeometry>
        </mxCell>
        <mxCell id="v2-bN_Bwf2UKAEft6Nu9-15" value="&lt;font style=&quot;font-size: 13px;&quot;&gt;input&lt;/font&gt;" style="edgeLabel;resizable=0;html=1;align=center;verticalAlign=middle;" connectable="0" vertex="1" parent="v2-bN_Bwf2UKAEft6Nu9-14">
          <mxGeometry relative="1" as="geometry" />
        </mxCell>
        <mxCell id="v2-bN_Bwf2UKAEft6Nu9-17" value="" style="endArrow=classic;html=1;rounded=0;" edge="1" parent="1">
          <mxGeometry relative="1" as="geometry">
            <mxPoint x="300" y="220" as="sourcePoint" />
            <mxPoint x="520" y="220" as="targetPoint" />
          </mxGeometry>
        </mxCell>
        <mxCell id="v2-bN_Bwf2UKAEft6Nu9-18" value="Label" style="edgeLabel;resizable=0;html=1;align=center;verticalAlign=middle;" connectable="0" vertex="1" parent="v2-bN_Bwf2UKAEft6Nu9-17">
          <mxGeometry relative="1" as="geometry" />
        </mxCell>
        <mxCell id="v2-bN_Bwf2UKAEft6Nu9-19" value="Text" style="edgeLabel;html=1;align=center;verticalAlign=middle;resizable=0;points=[];" vertex="1" connectable="0" parent="v2-bN_Bwf2UKAEft6Nu9-17">
          <mxGeometry x="0.0182" y="3" relative="1" as="geometry">
            <mxPoint as="offset" />
          </mxGeometry>
        </mxCell>
        <mxCell id="v2-bN_Bwf2UKAEft6Nu9-20" value="&lt;font style=&quot;font-size: 13px;&quot;&gt;isValidUser(username,password)&lt;/font&gt;" style="edgeLabel;html=1;align=center;verticalAlign=middle;resizable=0;points=[];" vertex="1" connectable="0" parent="v2-bN_Bwf2UKAEft6Nu9-17">
          <mxGeometry x="0.0545" relative="1" as="geometry">
            <mxPoint as="offset" />
          </mxGeometry>
        </mxCell>
        <mxCell id="v2-bN_Bwf2UKAEft6Nu9-21" value="" style="endArrow=classic;html=1;rounded=0;" edge="1" parent="1">
          <mxGeometry relative="1" as="geometry">
            <mxPoint x="520" y="260" as="sourcePoint" />
            <mxPoint x="300" y="260" as="targetPoint" />
          </mxGeometry>
        </mxCell>
        <mxCell id="v2-bN_Bwf2UKAEft6Nu9-22" value="Label" style="edgeLabel;resizable=0;html=1;align=center;verticalAlign=middle;" connectable="0" vertex="1" parent="v2-bN_Bwf2UKAEft6Nu9-21">
          <mxGeometry relative="1" as="geometry" />
        </mxCell>
        <mxCell id="v2-bN_Bwf2UKAEft6Nu9-23" value="&lt;font style=&quot;font-size: 13px;&quot;&gt;return: true&lt;/font&gt;" style="edgeLabel;html=1;align=center;verticalAlign=middle;resizable=0;points=[];" vertex="1" connectable="0" parent="v2-bN_Bwf2UKAEft6Nu9-21">
          <mxGeometry x="-0.0455" relative="1" as="geometry">
            <mxPoint as="offset" />
          </mxGeometry>
        </mxCell>
        <mxCell id="v2-bN_Bwf2UKAEft6Nu9-25" value="" style="endArrow=classic;html=1;rounded=0;" edge="1" parent="1">
          <mxGeometry relative="1" as="geometry">
            <mxPoint x="300" y="320" as="sourcePoint" />
            <mxPoint x="710" y="320" as="targetPoint" />
          </mxGeometry>
        </mxCell>
        <mxCell id="v2-bN_Bwf2UKAEft6Nu9-26" value="Label" style="edgeLabel;resizable=0;html=1;align=center;verticalAlign=middle;" connectable="0" vertex="1" parent="v2-bN_Bwf2UKAEft6Nu9-25">
          <mxGeometry relative="1" as="geometry" />
        </mxCell>
        <mxCell id="v2-bN_Bwf2UKAEft6Nu9-27" value="&lt;font style=&quot;font-size: 13px;&quot;&gt;changeScene()&lt;/font&gt;" style="edgeLabel;html=1;align=center;verticalAlign=middle;resizable=0;points=[];" vertex="1" connectable="0" parent="v2-bN_Bwf2UKAEft6Nu9-25">
          <mxGeometry x="-0.0098" y="-2" relative="1" as="geometry">
            <mxPoint as="offset" />
          </mxGeometry>
        </mxCell>
        <mxCell id="v2-bN_Bwf2UKAEft6Nu9-29" style="edgeStyle=orthogonalEdgeStyle;rounded=0;orthogonalLoop=1;jettySize=auto;html=1;" edge="1" parent="1" source="v2-bN_Bwf2UKAEft6Nu9-28">
          <mxGeometry relative="1" as="geometry">
            <mxPoint x="900" y="1130" as="targetPoint" />
          </mxGeometry>
        </mxCell>
        <mxCell id="v2-bN_Bwf2UKAEft6Nu9-28" value="LogicBalance" style="rounded=0;whiteSpace=wrap;html=1;" vertex="1" parent="1">
          <mxGeometry x="840" y="20" width="120" height="60" as="geometry" />
        </mxCell>
        <mxCell id="v2-bN_Bwf2UKAEft6Nu9-30" value="" style="endArrow=classic;html=1;rounded=0;" edge="1" parent="1">
          <mxGeometry relative="1" as="geometry">
            <mxPoint x="710" y="340" as="sourcePoint" />
            <mxPoint x="900" y="340" as="targetPoint" />
          </mxGeometry>
        </mxCell>
        <mxCell id="v2-bN_Bwf2UKAEft6Nu9-31" value="Label" style="edgeLabel;resizable=0;html=1;align=center;verticalAlign=middle;" connectable="0" vertex="1" parent="v2-bN_Bwf2UKAEft6Nu9-30">
          <mxGeometry relative="1" as="geometry" />
        </mxCell>
        <mxCell id="v2-bN_Bwf2UKAEft6Nu9-32" value="&lt;font style=&quot;font-size: 13px;&quot;&gt;updateBalance()&lt;/font&gt;" style="edgeLabel;html=1;align=center;verticalAlign=middle;resizable=0;points=[];" vertex="1" connectable="0" parent="v2-bN_Bwf2UKAEft6Nu9-30">
          <mxGeometry x="0.0211" y="1" relative="1" as="geometry">
            <mxPoint as="offset" />
          </mxGeometry>
        </mxCell>
        <mxCell id="v2-bN_Bwf2UKAEft6Nu9-34" value="" style="endArrow=classic;html=1;rounded=0;dashed=1;" edge="1" parent="1">
          <mxGeometry relative="1" as="geometry">
            <mxPoint x="900" y="380" as="sourcePoint" />
            <mxPoint x="710" y="380" as="targetPoint" />
          </mxGeometry>
        </mxCell>
        <mxCell id="v2-bN_Bwf2UKAEft6Nu9-35" value="Label" style="edgeLabel;resizable=0;html=1;align=center;verticalAlign=middle;" connectable="0" vertex="1" parent="v2-bN_Bwf2UKAEft6Nu9-34">
          <mxGeometry relative="1" as="geometry" />
        </mxCell>
        <mxCell id="v2-bN_Bwf2UKAEft6Nu9-36" value="&lt;font style=&quot;font-size: 13px;&quot;&gt;BalanceFinished&lt;/font&gt;" style="edgeLabel;html=1;align=center;verticalAlign=middle;resizable=0;points=[];" vertex="1" connectable="0" parent="v2-bN_Bwf2UKAEft6Nu9-34">
          <mxGeometry x="-0.0842" y="2" relative="1" as="geometry">
            <mxPoint as="offset" />
          </mxGeometry>
        </mxCell>
        <mxCell id="v2-bN_Bwf2UKAEft6Nu9-38" style="edgeStyle=orthogonalEdgeStyle;rounded=0;orthogonalLoop=1;jettySize=auto;html=1;" edge="1" parent="1" source="v2-bN_Bwf2UKAEft6Nu9-37">
          <mxGeometry relative="1" as="geometry">
            <mxPoint x="1110" y="1130" as="targetPoint" />
          </mxGeometry>
        </mxCell>
        <mxCell id="v2-bN_Bwf2UKAEft6Nu9-37" value="LogicOverview" style="rounded=0;whiteSpace=wrap;html=1;" vertex="1" parent="1">
          <mxGeometry x="1050" y="20" width="120" height="60" as="geometry" />
        </mxCell>
        <mxCell id="v2-bN_Bwf2UKAEft6Nu9-40" value="" style="endArrow=classic;html=1;rounded=0;" edge="1" parent="1">
          <mxGeometry relative="1" as="geometry">
            <mxPoint x="710" y="420" as="sourcePoint" />
            <mxPoint x="1110" y="420" as="targetPoint" />
          </mxGeometry>
        </mxCell>
        <mxCell id="v2-bN_Bwf2UKAEft6Nu9-41" value="&lt;font style=&quot;font-size: 13px;&quot;&gt;database()&lt;/font&gt;" style="edgeLabel;resizable=0;html=1;align=center;verticalAlign=middle;" connectable="0" vertex="1" parent="v2-bN_Bwf2UKAEft6Nu9-40">
          <mxGeometry relative="1" as="geometry" />
        </mxCell>
        <mxCell id="v2-bN_Bwf2UKAEft6Nu9-42" value="" style="endArrow=classic;html=1;rounded=0;dashed=1;" edge="1" parent="1">
          <mxGeometry relative="1" as="geometry">
            <mxPoint x="1110" y="460" as="sourcePoint" />
            <mxPoint x="710" y="460" as="targetPoint" />
          </mxGeometry>
        </mxCell>
        <mxCell id="v2-bN_Bwf2UKAEft6Nu9-43" value="&lt;font style=&quot;font-size: 13px;&quot;&gt;Searching for data succeed&lt;/font&gt;" style="edgeLabel;resizable=0;html=1;align=center;verticalAlign=middle;" connectable="0" vertex="1" parent="v2-bN_Bwf2UKAEft6Nu9-42">
          <mxGeometry relative="1" as="geometry" />
        </mxCell>
        <mxCell id="v2-bN_Bwf2UKAEft6Nu9-47" value="" style="endArrow=classic;html=1;rounded=0;" edge="1" parent="1">
          <mxGeometry relative="1" as="geometry">
            <mxPoint x="90" y="630" as="sourcePoint" />
            <mxPoint x="710" y="630" as="targetPoint" />
          </mxGeometry>
        </mxCell>
        <mxCell id="v2-bN_Bwf2UKAEft6Nu9-48" value="&lt;font style=&quot;font-size: 13px;&quot;&gt;Button: neuer Eintrag&lt;/font&gt;" style="edgeLabel;resizable=0;html=1;align=center;verticalAlign=middle;" connectable="0" vertex="1" parent="v2-bN_Bwf2UKAEft6Nu9-47">
          <mxGeometry relative="1" as="geometry" />
        </mxCell>
        <mxCell id="v2-bN_Bwf2UKAEft6Nu9-51" style="edgeStyle=orthogonalEdgeStyle;rounded=0;orthogonalLoop=1;jettySize=auto;html=1;" edge="1" parent="1" source="v2-bN_Bwf2UKAEft6Nu9-50">
          <mxGeometry relative="1" as="geometry">
            <mxPoint x="1340" y="1132" as="targetPoint" />
          </mxGeometry>
        </mxCell>
        <mxCell id="v2-bN_Bwf2UKAEft6Nu9-50" value="ControllerNewEntry" style="rounded=0;whiteSpace=wrap;html=1;" vertex="1" parent="1">
          <mxGeometry x="1280" y="20" width="120" height="60" as="geometry" />
        </mxCell>
        <mxCell id="v2-bN_Bwf2UKAEft6Nu9-53" value="" style="endArrow=classic;html=1;rounded=0;" edge="1" parent="1">
          <mxGeometry relative="1" as="geometry">
            <mxPoint x="710" y="660" as="sourcePoint" />
            <mxPoint x="1340" y="660" as="targetPoint" />
          </mxGeometry>
        </mxCell>
        <mxCell id="v2-bN_Bwf2UKAEft6Nu9-54" value="&lt;font style=&quot;font-size: 13px;&quot;&gt;changeScene()&lt;/font&gt;" style="edgeLabel;resizable=0;html=1;align=center;verticalAlign=middle;" connectable="0" vertex="1" parent="v2-bN_Bwf2UKAEft6Nu9-53">
          <mxGeometry relative="1" as="geometry" />
        </mxCell>
        <mxCell id="v2-bN_Bwf2UKAEft6Nu9-55" value="" style="endArrow=classic;html=1;rounded=0;" edge="1" parent="1">
          <mxGeometry relative="1" as="geometry">
            <mxPoint x="90" y="700" as="sourcePoint" />
            <mxPoint x="1340" y="700" as="targetPoint" />
          </mxGeometry>
        </mxCell>
        <mxCell id="v2-bN_Bwf2UKAEft6Nu9-56" value="&lt;font style=&quot;font-size: 13px;&quot;&gt;input&lt;/font&gt;" style="edgeLabel;resizable=0;html=1;align=center;verticalAlign=middle;" connectable="0" vertex="1" parent="v2-bN_Bwf2UKAEft6Nu9-55">
          <mxGeometry relative="1" as="geometry" />
        </mxCell>
        <mxCell id="v2-bN_Bwf2UKAEft6Nu9-76" style="edgeStyle=orthogonalEdgeStyle;rounded=0;orthogonalLoop=1;jettySize=auto;html=1;" edge="1" parent="1" source="v2-bN_Bwf2UKAEft6Nu9-58">
          <mxGeometry relative="1" as="geometry">
            <mxPoint x="2068" y="1141" as="targetPoint" />
          </mxGeometry>
        </mxCell>
        <mxCell id="v2-bN_Bwf2UKAEft6Nu9-58" value="LogicNewEntry" style="rounded=0;whiteSpace=wrap;html=1;" vertex="1" parent="1">
          <mxGeometry x="2008" y="10" width="120" height="60" as="geometry" />
        </mxCell>
        <mxCell id="v2-bN_Bwf2UKAEft6Nu9-60" value="" style="endArrow=classic;html=1;rounded=0;" edge="1" parent="1">
          <mxGeometry relative="1" as="geometry">
            <mxPoint x="1340" y="720" as="sourcePoint" />
            <mxPoint x="2070" y="720" as="targetPoint" />
          </mxGeometry>
        </mxCell>
        <mxCell id="v2-bN_Bwf2UKAEft6Nu9-61" value="&lt;font style=&quot;font-size: 13px;&quot;&gt;checkingFormats(amountChange, note, date)l&lt;/font&gt;" style="edgeLabel;resizable=0;html=1;align=center;verticalAlign=middle;" connectable="0" vertex="1" parent="v2-bN_Bwf2UKAEft6Nu9-60">
          <mxGeometry relative="1" as="geometry">
            <mxPoint x="-5" as="offset" />
          </mxGeometry>
        </mxCell>
        <mxCell id="v2-bN_Bwf2UKAEft6Nu9-67" value="" style="endArrow=classic;html=1;rounded=0;" edge="1" parent="1">
          <mxGeometry relative="1" as="geometry">
            <mxPoint x="2070" y="760" as="sourcePoint" />
            <mxPoint x="1340" y="760" as="targetPoint" />
          </mxGeometry>
        </mxCell>
        <mxCell id="v2-bN_Bwf2UKAEft6Nu9-68" value="&lt;font style=&quot;font-size: 13px;&quot;&gt;return: true&lt;/font&gt;" style="edgeLabel;resizable=0;html=1;align=center;verticalAlign=middle;" connectable="0" vertex="1" parent="v2-bN_Bwf2UKAEft6Nu9-67">
          <mxGeometry relative="1" as="geometry" />
        </mxCell>
        <mxCell id="v2-bN_Bwf2UKAEft6Nu9-71" value="" style="endArrow=classic;html=1;rounded=0;" edge="1" parent="1">
          <mxGeometry relative="1" as="geometry">
            <mxPoint x="1340" y="800" as="sourcePoint" />
            <mxPoint x="2070" y="800" as="targetPoint" />
          </mxGeometry>
        </mxCell>
        <mxCell id="v2-bN_Bwf2UKAEft6Nu9-72" value="changedAccount(inputNumber, myChoiceBox, sliderValue, inputReason, inputDate, repeatabilityBox, repeatBox, paymentMathodBox)" style="edgeLabel;resizable=0;html=1;align=center;verticalAlign=middle;" connectable="0" vertex="1" parent="v2-bN_Bwf2UKAEft6Nu9-71">
          <mxGeometry relative="1" as="geometry">
            <mxPoint x="5" as="offset" />
          </mxGeometry>
        </mxCell>
        <mxCell id="v2-bN_Bwf2UKAEft6Nu9-91" style="edgeStyle=orthogonalEdgeStyle;rounded=0;orthogonalLoop=1;jettySize=auto;html=1;" edge="1" parent="1" source="v2-bN_Bwf2UKAEft6Nu9-77">
          <mxGeometry relative="1" as="geometry">
            <mxPoint x="2410" y="1141" as="targetPoint" />
          </mxGeometry>
        </mxCell>
        <mxCell id="v2-bN_Bwf2UKAEft6Nu9-77" value="LogicSuperClass" style="rounded=0;whiteSpace=wrap;html=1;" vertex="1" parent="1">
          <mxGeometry x="2350" y="10" width="120" height="60" as="geometry" />
        </mxCell>
        <mxCell id="v2-bN_Bwf2UKAEft6Nu9-79" value="" style="endArrow=classic;html=1;rounded=0;" edge="1" parent="1">
          <mxGeometry relative="1" as="geometry">
            <mxPoint x="2068" y="820" as="sourcePoint" />
            <mxPoint x="2410" y="820" as="targetPoint" />
          </mxGeometry>
        </mxCell>
        <mxCell id="v2-bN_Bwf2UKAEft6Nu9-80" value="&lt;font style=&quot;font-size: 13px;&quot;&gt;isRegularBool(repeatBox)&lt;/font&gt;" style="edgeLabel;resizable=0;html=1;align=center;verticalAlign=middle;" connectable="0" vertex="1" parent="v2-bN_Bwf2UKAEft6Nu9-79">
          <mxGeometry relative="1" as="geometry" />
        </mxCell>
        <mxCell id="v2-bN_Bwf2UKAEft6Nu9-81" value="" style="endArrow=classic;html=1;rounded=0;" edge="1" parent="1">
          <mxGeometry relative="1" as="geometry">
            <mxPoint x="2410" y="850" as="sourcePoint" />
            <mxPoint x="2070" y="850" as="targetPoint" />
          </mxGeometry>
        </mxCell>
        <mxCell id="v2-bN_Bwf2UKAEft6Nu9-82" value="&lt;font style=&quot;font-size: 13px;&quot;&gt;return true/false&lt;/font&gt;" style="edgeLabel;resizable=0;html=1;align=center;verticalAlign=middle;" connectable="0" vertex="1" parent="v2-bN_Bwf2UKAEft6Nu9-81">
          <mxGeometry relative="1" as="geometry" />
        </mxCell>
        <mxCell id="v2-bN_Bwf2UKAEft6Nu9-85" value="" style="endArrow=classic;html=1;rounded=0;" edge="1" parent="1">
          <mxGeometry relative="1" as="geometry">
            <mxPoint x="2070" y="880" as="sourcePoint" />
            <mxPoint x="2410" y="880" as="targetPoint" />
          </mxGeometry>
        </mxCell>
        <mxCell id="v2-bN_Bwf2UKAEft6Nu9-86" value="&lt;font style=&quot;font-size: 13px;&quot;&gt;checkFrequency(repeatBox, repetitionFrequency)&lt;/font&gt;" style="edgeLabel;resizable=0;html=1;align=center;verticalAlign=middle;" connectable="0" vertex="1" parent="v2-bN_Bwf2UKAEft6Nu9-85">
          <mxGeometry relative="1" as="geometry" />
        </mxCell>
        <mxCell id="v2-bN_Bwf2UKAEft6Nu9-92" value="" style="endArrow=classic;html=1;rounded=0;" edge="1" parent="1">
          <mxGeometry relative="1" as="geometry">
            <mxPoint x="2410" y="910" as="sourcePoint" />
            <mxPoint x="2070" y="910" as="targetPoint" />
          </mxGeometry>
        </mxCell>
        <mxCell id="v2-bN_Bwf2UKAEft6Nu9-93" value="&lt;font style=&quot;font-size: 13px;&quot;&gt;return frequency&lt;/font&gt;" style="edgeLabel;resizable=0;html=1;align=center;verticalAlign=middle;" connectable="0" vertex="1" parent="v2-bN_Bwf2UKAEft6Nu9-92">
          <mxGeometry relative="1" as="geometry" />
        </mxCell>
        <mxCell id="v2-bN_Bwf2UKAEft6Nu9-100" value="" style="endArrow=classic;html=1;rounded=0;" edge="1" parent="1">
          <mxGeometry relative="1" as="geometry">
            <mxPoint x="2068" y="940" as="sourcePoint" />
            <mxPoint x="2410" y="940" as="targetPoint" />
          </mxGeometry>
        </mxCell>
        <mxCell id="v2-bN_Bwf2UKAEft6Nu9-101" value="&lt;font style=&quot;font-size: 13px;&quot;&gt;checkPayment(payment, accountChange)&lt;/font&gt;" style="edgeLabel;resizable=0;html=1;align=center;verticalAlign=middle;" connectable="0" vertex="1" parent="v2-bN_Bwf2UKAEft6Nu9-100">
          <mxGeometry relative="1" as="geometry" />
        </mxCell>
        <mxCell id="v2-bN_Bwf2UKAEft6Nu9-103" value="" style="endArrow=classic;html=1;rounded=0;" edge="1" parent="1">
          <mxGeometry relative="1" as="geometry">
            <mxPoint x="2410" y="970" as="sourcePoint" />
            <mxPoint x="2070" y="970" as="targetPoint" />
          </mxGeometry>
        </mxCell>
        <mxCell id="v2-bN_Bwf2UKAEft6Nu9-104" value="&lt;font style=&quot;font-size: 13px;&quot;&gt;return payment&lt;/font&gt;" style="edgeLabel;resizable=0;html=1;align=center;verticalAlign=middle;" connectable="0" vertex="1" parent="v2-bN_Bwf2UKAEft6Nu9-103">
          <mxGeometry relative="1" as="geometry" />
        </mxCell>
        <mxCell id="v2-bN_Bwf2UKAEft6Nu9-105" value="" style="endArrow=classic;html=1;rounded=0;dashed=1;" edge="1" parent="1">
          <mxGeometry relative="1" as="geometry">
            <mxPoint x="2070" y="1000" as="sourcePoint" />
            <mxPoint x="1340" y="1000" as="targetPoint" />
          </mxGeometry>
        </mxCell>
        <mxCell id="v2-bN_Bwf2UKAEft6Nu9-106" value="&lt;font style=&quot;font-size: 13px;&quot;&gt;new Entry saved&lt;/font&gt;" style="edgeLabel;resizable=0;html=1;align=center;verticalAlign=middle;" connectable="0" vertex="1" parent="v2-bN_Bwf2UKAEft6Nu9-105">
          <mxGeometry relative="1" as="geometry" />
        </mxCell>
        <mxCell id="v2-bN_Bwf2UKAEft6Nu9-107" value="" style="endArrow=classic;html=1;rounded=0;" edge="1" parent="1">
          <mxGeometry relative="1" as="geometry">
            <mxPoint x="1340" y="1030" as="sourcePoint" />
            <mxPoint x="710" y="1030" as="targetPoint" />
          </mxGeometry>
        </mxCell>
        <mxCell id="v2-bN_Bwf2UKAEft6Nu9-108" value="&lt;font style=&quot;font-size: 13px;&quot;&gt;changeScene()&lt;/font&gt;" style="edgeLabel;resizable=0;html=1;align=center;verticalAlign=middle;" connectable="0" vertex="1" parent="v2-bN_Bwf2UKAEft6Nu9-107">
          <mxGeometry relative="1" as="geometry" />
        </mxCell>
        <mxCell id="v2-bN_Bwf2UKAEft6Nu9-112" value="&lt;font style=&quot;font-size: 15px;&quot;&gt;Neuen Eintrag erstellen&lt;/font&gt;" style="swimlane;whiteSpace=wrap;html=1;" vertex="1" parent="1">
          <mxGeometry x="40" y="580" width="2410" height="540" as="geometry" />
        </mxCell>
        <mxCell id="v2-bN_Bwf2UKAEft6Nu9-113" value="&lt;font style=&quot;font-size: 15px;&quot;&gt;Login Vorgang&lt;/font&gt;" style="swimlane;whiteSpace=wrap;html=1;" vertex="1" parent="1">
          <mxGeometry x="40" y="130" width="1150" height="430" as="geometry" />
        </mxCell>
      </root>
    </mxGraphModel>
  </diagram>
</mxfile>
